<svg width="1000" height="800" xmlns="http://www.w3.org/2000/svg">
<path d="M 50,613 C 250,613 250,0 450,0 L 450,134 C 250,134 250,747 50,747 Z" fill="#394c50" fill-opacity="0.25" stroke-width="2" />
<path d="M 500,0 C 700,0 700,318 900,318 L 900,452 C 700,452 700,134 500,134 Z" fill="#000050" fill-opacity="0.25" stroke-width="2" />
<path d="M 50,0 C 250,0 250,134 450,134 L 450,262 C 250,262 250,128 50,128 Z" fill="#000050" fill-opacity="0.25" stroke-width="2" />
<path d="M 500,134 C 700,134 700,0 900,0 L 900,128 C 700,128 700,262 500,262 Z" fill="#0c1050" fill-opacity="0.25" stroke-width="2" />
<path d="M 500,262 C 700,262 700,128 900,128 L 900,247 C 700,247 700,381 500,381 Z" fill="#182050" fill-opacity="0.25" stroke-width="2" />
<path d="M 50,128 C 250,128 250,262 450,262 L 450,381 C 250,381 250,247 50,247 Z" fill="#0c1050" fill-opacity="0.25" stroke-width="2" />
<path d="M 500,381 C 700,381 700,567 900,567 L 900,608 C 700,608 700,422 500,422 Z" fill="#232f50" fill-opacity="0.25" stroke-width="2" />
<path d="M 50,247 C 250,247 250,381 450,381 L 450,422 C 250,422 250,288 50,288 Z" fill="#161e50" fill-opacity="0.25" stroke-width="2" />
<path d="M 50,288 C 250,288 250,422 450,422 L 450,453 C 250,453 250,319 50,319 Z" fill="#1b2450" fill-opacity="0.25" stroke-width="2" />
<path d="M 500,422 C 700,422 700,608 900,608 L 900,639 C 700,639 700,453 500,453 Z" fill="#273450" fill-opacity="0.25" stroke-width="2" />
<path d="M 50,319 C 250,319 250,453 450,453 L 450,481 C 250,481 250,347 50,347 Z" fill="#1d2750" fill-opacity="0.25" stroke-width="2" />
<path d="M 500,453 C 700,453 700,247 900,247 L 900,275 C 700,275 700,481 500,481 Z" fill="#2a3850" fill-opacity="0.25" stroke-width="2" />
<path d="M 50,347 C 250,347 250,481 450,481 L 450,503 C 250,503 250,369 50,369 Z" fill="#202b50" fill-opacity="0.25" stroke-width="2" />
<path d="M 500,481 C 700,481 700,275 900,275 L 900,297 C 700,297 700,503 500,503 Z" fill="#2d3c50" fill-opacity="0.25" stroke-width="2" />
<path d="M 50,369 C 250,369 250,503 450,503 L 450,522 C 250,522 250,388 50,388 Z" fill="#222e50" fill-opacity="0.25" stroke-width="2" />
<path d="M 500,503 C 700,503 700,297 900,297 L 900,316 C 700,316 700,522 500,522 Z" fill="#2e3e50" fill-opacity="0.25" stroke-width="2" />
<path d="M 50,388 C 250,388 250,522 450,522 L 450,540 C 250,540 250,406 50,406 Z" fill="#243050" fill-opacity="0.25" stroke-width="2" />
<path d="M 500,522 C 700,522 700,639 900,639 L 900,657 C 700,657 700,540 500,540 Z" fill="#304150" fill-opacity="0.25" stroke-width="2" />
<path d="M 500,540 C 700,540 700,657 900,657 L 900,675 C 700,675 700,558 500,558 Z" fill="#324350" fill-opacity="0.25" stroke-width="2" />
<path d="M 50,406 C 250,406 250,540 450,540 L 450,558 C 250,558 250,424 50,424 Z" fill="#253250" fill-opacity="0.25" stroke-width="2" />
<path d="M 500,558 C 700,558 700,781 900,781 L 900,797 C 700,797 700,574 500,574 Z" fill="#334550" fill-opacity="0.25" stroke-width="2" />
<path d="M 50,424 C 250,424 250,558 450,558 L 450,574 C 250,574 250,440 50,440 Z" fill="#273550" fill-opacity="0.25" stroke-width="2" />
<path d="M 50,440 C 250,440 250,574 450,574 L 450,586 C 250,586 250,452 50,452 Z" fill="#293750" fill-opacity="0.25" stroke-width="2" />
<path d="M 500,574 C 700,574 700,452 900,452 L 900,464 C 700,464 700,586 500,586 Z" fill="#354750" fill-opacity="0.25" stroke-width="2" />
<path d="M 500,586 C 700,586 700,464 900,464 L 900,476 C 700,476 700,598 500,598 Z" fill="#364950" fill-opacity="0.25" stroke-width="2" />
<path d="M 50,786 C 250,786 250,586 450,586 L 450,598 C 250,598 250,798 50,798 Z" fill="#496250" fill-opacity="0.25" stroke-width="2" />
<path d="M 50,452 C 250,452 250,598 450,598 L 450,605 C 250,605 250,460 50,460 Z" fill="#2a3850" fill-opacity="0.25" stroke-width="2" />
<path d="M 500,598 C 700,598 700,675 900,675 L 900,683 C 700,683 700,605 500,605 Z" fill="#374a50" fill-opacity="0.25" stroke-width="2" />
<path d="M 500,606 C 700,606 700,476 900,476 L 900,484 C 700,484 700,614 500,614 Z" fill="#384b50" fill-opacity="0.25" stroke-width="2" />
<path d="M 50,747 C 250,747 250,606 450,606 L 450,614 C 250,614 250,755 50,755 Z" fill="#455d50" fill-opacity="0.25" stroke-width="2" />
<path d="M 50,755 C 250,755 250,614 450,614 L 450,621 C 250,621 250,763 50,763 Z" fill="#465e50" fill-opacity="0.25" stroke-width="2" />
<path d="M 500,614 C 700,614 700,484 900,484 L 900,492 C 700,492 700,621 500,621 Z" fill="#394c50" fill-opacity="0.25" stroke-width="2" />
<path d="M 500,622 C 700,622 700,683 900,683 L 900,691 C 700,691 700,630 500,630 Z" fill="#394d50" fill-opacity="0.25" stroke-width="2" />
<path d="M 50,460 C 250,460 250,622 450,622 L 450,630 C 250,630 250,468 50,468 Z" fill="#2a3950" fill-opacity="0.25" stroke-width="2" />
<path d="M 50,468 C 250,468 250,630 450,630 L 450,637 C 250,637 250,475 50,475 Z" fill="#2b3a50" fill-opacity="0.25" stroke-width="2" />
<path d="M 500,630 C 700,630 700,691 900,691 L 900,698 C 700,698 700,637 500,637 Z" fill="#3a4e50" fill-opacity="0.25" stroke-width="2" />
<path d="M 500,637 C 700,637 700,698 900,698 L 900,705 C 700,705 700,644 500,644 Z" fill="#3b4f50" fill-opacity="0.25" stroke-width="2" />
<path d="M 50,475 C 250,475 250,637 450,637 L 450,644 C 250,644 250,482 50,482 Z" fill="#2c3b50" fill-opacity="0.25" stroke-width="2" />
<path d="M 500,644 C 700,644 700,705 900,705 L 900,712 C 700,712 700,651 500,651 Z" fill="#3c5050" fill-opacity="0.25" stroke-width="2" />
<path d="M 50,482 C 250,482 250,644 450,644 L 450,651 C 250,651 250,489 50,489 Z" fill="#2d3c50" fill-opacity="0.25" stroke-width="2" />
<path d="M 50,489 C 250,489 250,651 450,651 L 450,657 C 250,657 250,495 50,495 Z" fill="#2d3d50" fill-opacity="0.25" stroke-width="2" />
<path d="M 500,651 C 700,651 700,712 900,712 L 900,718 C 700,718 700,657 500,657 Z" fill="#3c5150" fill-opacity="0.25" stroke-width="2" />
<path d="M 50,495 C 250,495 250,657 450,657 L 450,662 C 250,662 250,501 50,501 Z" fill="#2d3d50" fill-opacity="0.25" stroke-width="2" />
<path d="M 500,657 C 700,657 700,718 900,718 L 900,724 C 700,724 700,662 500,662 Z" fill="#3d5250" fill-opacity="0.25" stroke-width="2" />
<path d="M 500,663 C 700,663 700,724 900,724 L 900,730 C 700,730 700,669 500,669 Z" fill="#3d5250" fill-opacity="0.25" stroke-width="2" />
<path d="M 50,501 C 250,501 250,663 450,663 L 450,669 C 250,669 250,507 50,507 Z" fill="#2e3e50" fill-opacity="0.25" stroke-width="2" />
<path d="M 500,669 C 700,669 700,730 900,730 L 900,736 C 700,736 700,675 500,675 Z" fill="#3e5350" fill-opacity="0.25" stroke-width="2" />
<path d="M 50,507 C 250,507 250,669 450,669 L 450,675 C 250,675 250,513 50,513 Z" fill="#2f3f50" fill-opacity="0.25" stroke-width="2" />
<path d="M 500,675 C 700,675 700,492 900,492 L 900,498 C 700,498 700,681 500,681 Z" fill="#3f5450" fill-opacity="0.25" stroke-width="2" />
<path d="M 50,763 C 250,763 250,675 450,675 L 450,681 C 250,681 250,769 50,769 Z" fill="#475f50" fill-opacity="0.25" stroke-width="2" />
<path d="M 500,681 C 700,681 700,736 900,736 L 900,742 C 700,742 700,687 500,687 Z" fill="#3f5550" fill-opacity="0.25" stroke-width="2" />
<path d="M 50,513 C 250,513 250,681 450,681 L 450,687 C 250,687 250,519 50,519 Z" fill="#304050" fill-opacity="0.25" stroke-width="2" />
<path d="M 50,519 C 250,519 250,687 450,687 L 450,693 C 250,693 250,524 50,524 Z" fill="#304050" fill-opacity="0.25" stroke-width="2" />
<path d="M 500,687 C 700,687 700,498 900,498 L 900,504 C 700,504 700,693 500,693 Z" fill="#3f5550" fill-opacity="0.25" stroke-width="2" />
<path d="M 50,524 C 250,524 250,693 450,693 L 450,698 C 250,698 250,529 50,529 Z" fill="#304150" fill-opacity="0.25" stroke-width="2" />
<path d="M 500,693 C 700,693 700,742 900,742 L 900,747 C 700,747 700,698 500,698 Z" fill="#405650" fill-opacity="0.25" stroke-width="2" />
<path d="M 50,769 C 250,769 250,698 450,698 L 450,703 C 250,703 250,774 50,774 Z" fill="#486050" fill-opacity="0.25" stroke-width="2" />
<path d="M 500,698 C 700,698 700,504 900,504 L 900,509 C 700,509 700,703 500,703 Z" fill="#415750" fill-opacity="0.25" stroke-width="2" />
<path d="M 50,774 C 250,774 250,703 450,703 L 450,707 C 250,707 250,778 50,778 Z" fill="#486050" fill-opacity="0.25" stroke-width="2" />
<path d="M 500,703 C 700,703 700,747 900,747 L 900,751 C 700,751 700,707 500,707 Z" fill="#415750" fill-opacity="0.25" stroke-width="2" />
<path d="M 500,707 C 700,707 700,509 900,509 L 900,513 C 700,513 700,711 500,711 Z" fill="#425850" fill-opacity="0.25" stroke-width="2" />
<path d="M 50,529 C 250,529 250,707 450,707 L 450,711 C 250,711 250,533 50,533 Z" fill="#314250" fill-opacity="0.25" stroke-width="2" />
<path d="M 50,533 C 250,533 250,711 450,711 L 450,714 C 250,714 250,537 50,537 Z" fill="#314250" fill-opacity="0.25" stroke-width="2" />
<path d="M 500,711 C 700,711 700,513 900,513 L 900,517 C 700,517 700,714 500,714 Z" fill="#425850" fill-opacity="0.25" stroke-width="2" />
<path d="M 50,537 C 250,537 250,715 450,715 L 450,719 C 250,719 250,541 50,541 Z" fill="#324350" fill-opacity="0.25" stroke-width="2" />
<path d="M 500,715 C 700,715 700,517 900,517 L 900,521 C 700,521 700,719 500,719 Z" fill="#425950" fill-opacity="0.25" stroke-width="2" />
<path d="M 500,719 C 700,719 700,521 900,521 L 900,525 C 700,525 700,723 500,723 Z" fill="#425950" fill-opacity="0.25" stroke-width="2" />
<path d="M 50,541 C 250,541 250,719 450,719 L 450,723 C 250,723 250,545 50,545 Z" fill="#324350" fill-opacity="0.25" stroke-width="2" />
<path d="M 50,545 C 250,545 250,723 450,723 L 450,726 C 250,726 250,549 50,549 Z" fill="#334450" fill-opacity="0.25" stroke-width="2" />
<path d="M 500,723 C 700,723 700,751 900,751 L 900,755 C 700,755 700,726 500,726 Z" fill="#435a50" fill-opacity="0.25" stroke-width="2" />
<path d="M 500,727 C 700,727 700,755 900,755 L 900,758 C 700,758 700,730 500,730 Z" fill="#435a50" fill-opacity="0.25" stroke-width="2" />
<path d="M 50,549 C 250,549 250,727 450,727 L 450,730 C 250,730 250,553 50,553 Z" fill="#334450" fill-opacity="0.25" stroke-width="2" />
<path d="M 50,553 C 250,553 250,731 450,731 L 450,733 C 250,733 250,556 50,556 Z" fill="#334550" fill-opacity="0.25" stroke-width="2" />
<path d="M 500,731 C 700,731 700,525 900,525 L 900,528 C 700,528 700,733 500,733 Z" fill="#445b50" fill-opacity="0.25" stroke-width="2" />
<path d="M 50,556 C 250,556 250,734 450,734 L 450,737 C 250,737 250,559 50,559 Z" fill="#334550" fill-opacity="0.25" stroke-width="2" />
<path d="M 500,734 C 700,734 700,528 900,528 L 900,531 C 700,531 700,737 500,737 Z" fill="#445b50" fill-opacity="0.25" stroke-width="2" />
<path d="M 50,559 C 250,559 250,737 450,737 L 450,740 C 250,740 250,562 50,562 Z" fill="#334550" fill-opacity="0.25" stroke-width="2" />
<path d="M 500,737 C 700,737 700,531 900,531 L 900,534 C 700,534 700,740 500,740 Z" fill="#455c50" fill-opacity="0.25" stroke-width="2" />
<path d="M 50,562 C 250,562 250,740 450,740 L 450,742 C 250,742 250,564 50,564 Z" fill="#344650" fill-opacity="0.25" stroke-width="2" />
<path d="M 500,740 C 700,740 700,758 900,758 L 900,760 C 700,760 700,742 500,742 Z" fill="#455c50" fill-opacity="0.25" stroke-width="2" />
<path d="M 500,742 C 700,742 700,534 900,534 L 900,536 C 700,536 700,744 500,744 Z" fill="#455c50" fill-opacity="0.25" stroke-width="2" />
<path d="M 50,778 C 250,778 250,742 450,742 L 450,744 C 250,744 250,780 50,780 Z" fill="#486150" fill-opacity="0.25" stroke-width="2" />
<path d="M 50,564 C 250,564 250,744 450,744 L 450,746 C 250,746 250,566 50,566 Z" fill="#344650" fill-opacity="0.25" stroke-width="2" />
<path d="M 500,744 C 700,744 700,760 900,760 L 900,762 C 700,762 700,746 500,746 Z" fill="#455d50" fill-opacity="0.25" stroke-width="2" />
<path d="M 50,565 C 250,565 250,745 450,745 L 450,747 C 250,747 250,568 50,568 Z" fill="#344650" fill-opacity="0.25" stroke-width="2" />
<path d="M 500,745 C 700,745 700,535 900,535 L 900,537 C 700,537 700,748 500,748 Z" fill="#455d50" fill-opacity="0.25" stroke-width="2" />
<path d="M 500,746 C 700,746 700,536 900,536 L 900,538 C 700,538 700,749 500,749 Z" fill="#455d50" fill-opacity="0.25" stroke-width="2" />
<path d="M 50,566 C 250,566 250,746 450,746 L 450,748 C 250,748 250,569 50,569 Z" fill="#344650" fill-opacity="0.25" stroke-width="2" />
<path d="M 500,747 C 700,747 700,761 900,761 L 900,763 C 700,763 700,750 500,750 Z" fill="#455d50" fill-opacity="0.25" stroke-width="2" />
<path d="M 50,567 C 250,567 250,747 450,747 L 450,749 C 250,749 250,570 50,570 Z" fill="#344650" fill-opacity="0.25" stroke-width="2" />
<path d="M 50,568 C 250,568 250,748 450,748 L 450,750 C 250,750 250,571 50,571 Z" fill="#354750" fill-opacity="0.25" stroke-width="2" />
<path d="M 500,748 C 700,748 700,537 900,537 L 900,539 C 700,539 700,751 500,751 Z" fill="#455d50" fill-opacity="0.25" stroke-width="2" />
<path d="M 500,749 C 700,749 700,538 900,538 L 900,540 C 700,540 700,752 500,752 Z" fill="#455d50" fill-opacity="0.25" stroke-width="2" />
<path d="M 50,569 C 250,569 250,749 450,749 L 450,751 C 250,751 250,572 50,572 Z" fill="#354750" fill-opacity="0.25" stroke-width="2" />
<path d="M 500,750 C 700,750 700,762 900,762 L 900,764 C 700,764 700,753 500,753 Z" fill="#455d50" fill-opacity="0.25" stroke-width="2" />
<path d="M 50,570 C 250,570 250,750 450,750 L 450,752 C 250,752 250,573 50,573 Z" fill="#354750" fill-opacity="0.25" stroke-width="2" />
<path d="M 50,571 C 250,571 250,751 450,751 L 450,753 C 250,753 250,574 50,574 Z" fill="#354750" fill-opacity="0.25" stroke-width="2" />
<path d="M 500,751 C 700,751 700,539 900,539 L 900,541 C 700,541 700,754 500,754 Z" fill="#455d50" fill-opacity="0.25" stroke-width="2" />
<path d="M 500,752 C 700,752 700,540 900,540 L 900,542 C 700,542 700,755 500,755 Z" fill="#465e50" fill-opacity="0.25" stroke-width="2" />
<path d="M 50,572 C 250,572 250,752 450,752 L 450,754 C 250,754 250,575 50,575 Z" fill="#354750" fill-opacity="0.25" stroke-width="2" />
<path d="M 50,573 C 250,573 250,753 450,753 L 450,755 C 250,755 250,576 50,576 Z" fill="#354750" fill-opacity="0.25" stroke-width="2" />
<path d="M 500,753 C 700,753 700,763 900,763 L 900,765 C 700,765 700,756 500,756 Z" fill="#465e50" fill-opacity="0.25" stroke-width="2" />
<path d="M 500,754 C 700,754 700,541 900,541 L 900,543 C 700,543 700,756 500,756 Z" fill="#465e50" fill-opacity="0.25" stroke-width="2" />
<path d="M 50,574 C 250,574 250,754 450,754 L 450,756 C 250,756 250,577 50,577 Z" fill="#354750" fill-opacity="0.25" stroke-width="2" />
<path d="M 50,575 C 250,575 250,755 450,755 L 450,757 C 250,757 250,578 50,578 Z" fill="#354750" fill-opacity="0.25" stroke-width="2" />
<path d="M 500,755 C 700,755 700,542 900,542 L 900,544 C 700,544 700,758 500,758 Z" fill="#465e50" fill-opacity="0.25" stroke-width="2" />
<path d="M 50,576 C 250,576 250,756 450,756 L 450,758 C 250,758 250,579 50,579 Z" fill="#364850" fill-opacity="0.25" stroke-width="2" />
<path d="M 500,756 C 700,756 700,543 900,543 L 900,545 C 700,545 700,759 500,759 Z" fill="#465e50" fill-opacity="0.25" stroke-width="2" />
<path d="M 500,757 C 700,757 700,764 900,764 L 900,766 C 700,766 700,759 500,759 Z" fill="#465e50" fill-opacity="0.25" stroke-width="2" />
<path d="M 50,577 C 250,577 250,757 450,757 L 450,759 C 250,759 250,580 50,580 Z" fill="#364850" fill-opacity="0.25" stroke-width="2" />
<path d="M 500,758 C 700,758 700,544 900,544 L 900,546 C 700,546 700,760 500,760 Z" fill="#465e50" fill-opacity="0.25" stroke-width="2" />
<path d="M 50,578 C 250,578 250,758 450,758 L 450,760 C 250,760 250,580 50,580 Z" fill="#364850" fill-opacity="0.25" stroke-width="2" />
<path d="M 500,758 C 700,758 700,544 900,544 L 900,546 C 700,546 700,760 500,760 Z" fill="#465e50" fill-opacity="0.25" stroke-width="2" />
<path d="M 50,779 C 250,779 250,758 450,758 L 450,760 C 250,760 250,781 50,781 Z" fill="#486150" fill-opacity="0.25" stroke-width="2" />
<path d="M 50,578 C 250,578 250,758 450,758 L 450,760 C 250,760 250,580 50,580 Z" fill="#364850" fill-opacity="0.25" stroke-width="2" />
<path d="M 500,758 C 700,758 700,765 900,765 L 900,767 C 700,767 700,760 500,760 Z" fill="#465e50" fill-opacity="0.25" stroke-width="2" />
<path d="M 500,758 C 700,758 700,765 900,765 L 900,767 C 700,767 700,760 500,760 Z" fill="#465e50" fill-opacity="0.25" stroke-width="2" />
<path d="M 50,578 C 250,578 250,758 450,758 L 450,760 C 250,760 250,580 50,580 Z" fill="#364850" fill-opacity="0.25" stroke-width="2" />
<path d="M 50,578 C 250,578 250,758 450,758 L 450,760 C 250,760 250,580 50,580 Z" fill="#364850" fill-opacity="0.25" stroke-width="2" />
<path d="M 500,758 C 700,758 700,544 900,544 L 900,546 C 700,546 700,760 500,760 Z" fill="#465e50" fill-opacity="0.25" stroke-width="2" />
<path d="M 500,758 C 700,758 700,544 900,544 L 900,546 C 700,546 700,760 500,760 Z" fill="#465e50" fill-opacity="0.25" stroke-width="2" />
<path d="M 50,578 C 250,578 250,758 450,758 L 450,760 C 250,760 250,580 50,580 Z" fill="#364850" fill-opacity="0.25" stroke-width="2" />
<path d="M 50,578 C 250,578 250,758 450,758 L 450,760 C 250,760 250,580 50,580 Z" fill="#364850" fill-opacity="0.25" stroke-width="2" />
<path d="M 500,758 C 700,758 700,765 900,765 L 900,767 C 700,767 700,760 500,760 Z" fill="#465e50" fill-opacity="0.25" stroke-width="2" />
<path d="M 500,758 C 700,758 700,544 900,544 L 900,546 C 700,546 700,760 500,760 Z" fill="#465e50" fill-opacity="0.25" stroke-width="2" />
<path d="M 50,779 C 250,779 250,758 450,758 L 450,760 C 250,760 250,781 50,781 Z" fill="#486150" fill-opacity="0.25" stroke-width="2" />
<path d="M 50,578 C 250,578 250,758 450,758 L 450,760 C 250,760 250,580 50,580 Z" fill="#364850" fill-opacity="0.25" stroke-width="2" />
<path d="M 500,758 C 700,758 700,544 900,544 L 900,546 C 700,546 700,760 500,760 Z" fill="#465e50" fill-opacity="0.25" stroke-width="2" />
<path d="M 500,758 C 700,758 700,544 900,544 L 900,546 C 700,546 700,760 500,760 Z" fill="#465e50" fill-opacity="0.25" stroke-width="2" />
<path d="M 50,578 C 250,578 250,758 450,758 L 450,760 C 250,760 250,580 50,580 Z" fill="#364850" fill-opacity="0.25" stroke-width="2" />
<path d="M 50,578 C 250,578 250,758 450,758 L 450,760 C 250,760 250,580 50,580 Z" fill="#364850" fill-opacity="0.25" stroke-width="2" />
<path d="M 500,758 C 700,758 700,544 900,544 L 900,546 C 700,546 700,760 500,760 Z" fill="#465e50" fill-opacity="0.25" stroke-width="2" />
<path d="M 50,578 C 250,578 250,758 450,758 L 450,760 C 250,760 250,580 50,580 Z" fill="#364850" fill-opacity="0.25" stroke-width="2" />
<path d="M 500,758 C 700,758 700,765 900,765 L 900,767 C 700,767 700,760 500,760 Z" fill="#465e50" fill-opacity="0.25" stroke-width="2" />
<path d="M 50,578 C 250,578 250,758 450,758 L 450,760 C 250,760 250,580 50,580 Z" fill="#364850" fill-opacity="0.25" stroke-width="2" />
<path d="M 500,758 C 700,758 700,544 900,544 L 900,546 C 700,546 700,760 500,760 Z" fill="#465e50" fill-opacity="0.25" stroke-width="2" />
<path d="M 500,758 C 700,758 700,544 900,544 L 900,546 C 700,546 700,760 500,760 Z" fill="#465e50" fill-opacity="0.25" stroke-width="2" />
<path d="M 50,578 C 250,578 250,758 450,758 L 450,760 C 250,760 250,580 50,580 Z" fill="#364850" fill-opacity="0.25" stroke-width="2" />
<path d="M 50,578 C 250,578 250,758 450,758 L 450,760 C 250,760 250,580 50,580 Z" fill="#364850" fill-opacity="0.25" stroke-width="2" />
<path d="M 500,758 C 700,758 700,544 900,544 L 900,546 C 700,546 700,760 500,760 Z" fill="#465e50" fill-opacity="0.25" stroke-width="2" />
<path d="M 500,758 C 700,758 700,765 900,765 L 900,767 C 700,767 700,760 500,760 Z" fill="#465e50" fill-opacity="0.25" stroke-width="2" />
<path d="M 50,578 C 250,578 250,758 450,758 L 450,760 C 250,760 250,580 50,580 Z" fill="#364850" fill-opacity="0.25" stroke-width="2" />
<path d="M 500,758 C 700,758 700,544 900,544 L 900,546 C 700,546 700,760 500,760 Z" fill="#465e50" fill-opacity="0.25" stroke-width="2" />
<path d="M 50,578 C 250,578 250,758 450,758 L 450,760 C 250,760 250,580 50,580 Z" fill="#364850" fill-opacity="0.25" stroke-width="2" />
<path d="M 50,578 C 250,578 250,758 450,758 L 450,760 C 250,760 250,580 50,580 Z" fill="#364850" fill-opacity="0.25" stroke-width="2" />
<path d="M 500,758 C 700,758 700,544 900,544 L 900,546 C 700,546 700,760 500,760 Z" fill="#465e50" fill-opacity="0.25" stroke-width="2" />
<path d="M 50,578 C 250,578 250,758 450,758 L 450,760 C 250,760 250,580 50,580 Z" fill="#364850" fill-opacity="0.25" stroke-width="2" />
<path d="M 500,758 C 700,758 700,544 900,544 L 900,546 C 700,546 700,760 500,760 Z" fill="#465e50" fill-opacity="0.25" stroke-width="2" />
<path d="M 50,578 C 250,578 250,758 450,758 L 450,760 C 250,760 250,580 50,580 Z" fill="#364850" fill-opacity="0.25" stroke-width="2" />
<path d="M 500,758 C 700,758 700,765 900,765 L 900,767 C 700,767 700,760 500,760 Z" fill="#465e50" fill-opacity="0.25" stroke-width="2" />
<path d="M 50,779 C 250,779 250,758 450,758 L 450,760 C 250,760 250,781 50,781 Z" fill="#486150" fill-opacity="0.25" stroke-width="2" />
<path d="M 500,758 C 700,758 700,544 900,544 L 900,546 C 700,546 700,760 500,760 Z" fill="#465e50" fill-opacity="0.25" stroke-width="2" />
<path d="M 50,779 C 250,779 250,758 450,758 L 450,760 C 250,760 250,781 50,781 Z" fill="#486150" fill-opacity="0.25" stroke-width="2" />
<path d="M 500,758 C 700,758 700,544 900,544 L 900,546 C 700,546 700,760 500,760 Z" fill="#465e50" fill-opacity="0.25" stroke-width="2" />
<path d="M 50,797 C 475,797 475,765 900,765 L 900,767 C 475,767 475,799 50,799 Z" fill="#4a6350" fill-opacity="0.25" stroke-width="2" />
<path d="M 50,797 C 25,797 25,797 0,797 L 0,799 C 25,799 25,799 50,799 Z" fill="#4a6350" fill-opacity="0.25" stroke-width="2" />
<path d="M 50,779 C 250,779 250,758 450,758 L 450,760 C 250,760 250,781 50,781 Z" fill="#486150" fill-opacity="0.25" stroke-width="2" />
<path d="M 500,758 C 700,758 700,544 900,544 L 900,546 C 700,546 700,760 500,760 Z" fill="#465e50" fill-opacity="0.25" stroke-width="2" />
<path d="M 500,758 C 700,758 700,544 900,544 L 900,546 C 700,546 700,760 500,760 Z" fill="#465e50" fill-opacity="0.25" stroke-width="2" />
<path d="M 50,779 C 250,779 250,758 450,758 L 450,760 C 250,760 250,781 50,781 Z" fill="#486150" fill-opacity="0.25" stroke-width="2" />
<path d="M 50,578 C 250,578 250,758 450,758 L 450,760 C 250,760 250,580 50,580 Z" fill="#364850" fill-opacity="0.25" stroke-width="2" />
<path d="M 500,758 C 700,758 700,544 900,544 L 900,546 C 700,546 700,760 500,760 Z" fill="#465e50" fill-opacity="0.25" stroke-width="2" />
<path d="M 500,758 C 700,758 700,544 900,544 L 900,546 C 700,546 700,760 500,760 Z" fill="#465e50" fill-opacity="0.25" stroke-width="2" />
<path d="M 50,578 C 250,578 250,758 450,758 L 450,760 C 250,760 250,580 50,580 Z" fill="#364850" fill-opacity="0.25" stroke-width="2" />
<path d="M 500,758 C 700,758 700,544 900,544 L 900,546 C 700,546 700,760 500,760 Z" fill="#465e50" fill-opacity="0.25" stroke-width="2" />
<path d="M 50,578 C 250,578 250,758 450,758 L 450,760 C 250,760 250,580 50,580 Z" fill="#364850" fill-opacity="0.25" stroke-width="2" />
<path d="M 50,578 C 250,578 250,758 450,758 L 450,760 C 250,760 250,580 50,580 Z" fill="#364850" fill-opacity="0.25" stroke-width="2" />
<path d="M 500,758 C 700,758 700,765 900,765 L 900,767 C 700,767 700,760 500,760 Z" fill="#465e50" fill-opacity="0.25" stroke-width="2" />
<path d="M 500,758 C 700,758 700,544 900,544 L 900,546 C 700,546 700,760 500,760 Z" fill="#465e50" fill-opacity="0.25" stroke-width="2" />
<path d="M 50,578 C 250,578 250,758 450,758 L 450,760 C 250,760 250,580 50,580 Z" fill="#364850" fill-opacity="0.25" stroke-width="2" />
<path d="M 500,758 C 700,758 700,765 900,765 L 900,767 C 700,767 700,760 500,760 Z" fill="#465e50" fill-opacity="0.25" stroke-width="2" />
<path d="M 50,578 C 250,578 250,758 450,758 L 450,760 C 250,760 250,580 50,580 Z" fill="#364850" fill-opacity="0.25" stroke-width="2" />
<path d="M 500,758 C 700,758 700,544 900,544 L 900,546 C 700,546 700,760 500,760 Z" fill="#465e50" fill-opacity="0.25" stroke-width="2" />
<path d="M 50,779 C 250,779 250,758 450,758 L 450,760 C 250,760 250,781 50,781 Z" fill="#486150" fill-opacity="0.25" stroke-width="2" />
<path d="M 50,578 C 250,578 250,758 450,758 L 450,760 C 250,760 250,580 50,580 Z" fill="#364850" fill-opacity="0.25" stroke-width="2" />
<path d="M 500,758 C 700,758 700,544 900,544 L 900,546 C 700,546 700,760 500,760 Z" fill="#465e50" fill-opacity="0.25" stroke-width="2" />
<path d="M 500,758 C 700,758 700,544 900,544 L 900,546 C 700,546 700,760 500,760 Z" fill="#465e50" fill-opacity="0.25" stroke-width="2" />
<path d="M 50,578 C 250,578 250,758 450,758 L 450,760 C 250,760 250,580 50,580 Z" fill="#364850" fill-opacity="0.25" stroke-width="2" />
<path d="M 500,758 C 700,758 700,765 900,765 L 900,767 C 700,767 700,760 500,760 Z" fill="#465e50" fill-opacity="0.25" stroke-width="2" />
<path d="M 50,578 C 250,578 250,758 450,758 L 450,760 C 250,760 250,580 50,580 Z" fill="#364850" fill-opacity="0.25" stroke-width="2" />
<path d="M 500,758 C 700,758 700,544 900,544 L 900,546 C 700,546 700,760 500,760 Z" fill="#465e50" fill-opacity="0.25" stroke-width="2" />
<path d="M 50,578 C 250,578 250,758 450,758 L 450,760 C 250,760 250,580 50,580 Z" fill="#364850" fill-opacity="0.25" stroke-width="2" />
<path d="M 50,797 C 475,797 475,796 900,796 L 900,798 C 475,798 475,799 50,799 Z" fill="#4a6350" fill-opacity="0.25" stroke-width="2" />
<path d="M 50,797 C 25,797 25,797 0,797 L 0,799 C 25,799 25,799 50,799 Z" fill="#4a6350" fill-opacity="0.25" stroke-width="2" />
<path d="M 50,797 C 475,797 475,796 900,796 L 900,798 C 475,798 475,799 50,799 Z" fill="#4a6350" fill-opacity="0.25" stroke-width="2" />
<path d="M 500,758 C 700,758 700,544 900,544 L 900,546 C 700,546 700,760 500,760 Z" fill="#465e50" fill-opacity="0.25" stroke-width="2" />
<path d="M 50,797 C 25,797 25,797 0,797 L 0,799 C 25,799 25,799 50,799 Z" fill="#4a6350" fill-opacity="0.25" stroke-width="2" />
<path d="M 50,797 C 475,797 475,796 900,796 L 900,798 C 475,798 475,799 50,799 Z" fill="#4a6350" fill-opacity="0.25" stroke-width="2" />
<path d="M 50,797 C 25,797 25,797 0,797 L 0,799 C 25,799 25,799 50,799 Z" fill="#4a6350" fill-opacity="0.25" stroke-width="2" />
<path d="M 50,578 C 250,578 250,758 450,758 L 450,760 C 250,760 250,580 50,580 Z" fill="#364850" fill-opacity="0.25" stroke-width="2" />
<path d="M 50,578 C 250,578 250,758 450,758 L 450,760 C 250,760 250,580 50,580 Z" fill="#364850" fill-opacity="0.25" stroke-width="2" />
<path d="M 500,758 C 700,758 700,544 900,544 L 900,546 C 700,546 700,760 500,760 Z" fill="#465e50" fill-opacity="0.25" stroke-width="2" />
<path d="M 50,779 C 250,779 250,758 450,758 L 450,760 C 250,760 250,781 50,781 Z" fill="#486150" fill-opacity="0.25" stroke-width="2" />
<path d="M 500,758 C 700,758 700,544 900,544 L 900,546 C 700,546 700,760 500,760 Z" fill="#465e50" fill-opacity="0.25" stroke-width="2" />
<path d="M 50,779 C 250,779 250,758 450,758 L 450,760 C 250,760 250,781 50,781 Z" fill="#486150" fill-opacity="0.25" stroke-width="2" />
<path d="M 500,758 C 700,758 700,544 900,544 L 900,546 C 700,546 700,760 500,760 Z" fill="#465e50" fill-opacity="0.25" stroke-width="2" />
<path d="M 50,578 C 250,578 250,758 450,758 L 450,760 C 250,760 250,580 50,580 Z" fill="#364850" fill-opacity="0.25" stroke-width="2" />
<path d="M 500,758 C 700,758 700,544 900,544 L 900,546 C 700,546 700,-9223372036854775048 500,-9223372036854775048 Z" fill="#465e50" fill-opacity="0.25" stroke-width="2" />
<path d="M 500,758 C 700,758 700,765 900,765 L 900,767 C 700,767 700,-9223372036854775048 500,-9223372036854775048 Z" fill="#465e50" fill-opacity="0.25" stroke-width="2" />
<path d="M 500,758 C 700,758 700,544 900,544 L 900,546 C 700,546 700,-9223372036854775048 500,-9223372036854775048 Z" fill="#465e50" fill-opacity="0.25" stroke-width="2" />
<path d="M 500,758 C 700,758 700,544 900,544 L 900,546 C 700,546 700,-9223372036854775048 500,-9223372036854775048 Z" fill="#465e50" fill-opacity="0.25" stroke-width="2" />
<path d="M 500,758 C 700,758 700,544 900,544 L 900,546 C 700,546 700,-9223372036854775048 500,-9223372036854775048 Z" fill="#465e50" fill-opacity="0.25" stroke-width="2" />
<path d="M 500,758 C 700,758 700,544 900,544 L 900,546 C 700,546 700,-9223372036854775048 500,-9223372036854775048 Z" fill="#465e50" fill-opacity="0.25" stroke-width="2" />
<path d="M 500,758 C 700,758 700,765 900,765 L 900,767 C 700,767 700,-9223372036854775048 500,-9223372036854775048 Z" fill="#465e50" fill-opacity="0.25" stroke-width="2" />
<path d="M 500,758 C 700,758 700,765 900,765 L 900,767 C 700,767 700,760 500,760 Z" fill="#465e50" fill-opacity="0.25" stroke-width="2" />
<path d="M 500,758 C 700,758 700,544 900,544 L 900,546 C 700,546 700,-9223372036854775048 500,-9223372036854775048 Z" fill="#465e50" fill-opacity="0.25" stroke-width="2" />
<path d="M 500,758 C 700,758 700,765 900,765 L 900,767 C 700,767 700,-9223372036854775048 500,-9223372036854775048 Z" fill="#465e50" fill-opacity="0.25" stroke-width="2" />
<path d="M 500,758 C 700,758 700,765 900,765 L 900,767 C 700,767 700,-9223372036854775048 500,-9223372036854775048 Z" fill="#465e50" fill-opacity="0.25" stroke-width="2" />
<path d="M 500,758 C 700,758 700,544 900,544 L 900,546 C 700,546 700,-9223372036854775048 500,-9223372036854775048 Z" fill="#465e50" fill-opacity="0.25" stroke-width="2" />
<path d="M 500,758 C 700,758 700,544 900,544 L 900,546 C 700,546 700,-9223372036854775048 500,-9223372036854775048 Z" fill="#465e50" fill-opacity="0.25" stroke-width="2" />
<path d="M 500,758 C 700,758 700,544 900,544 L 900,546 C 700,546 700,-9223372036854775048 500,-9223372036854775048 Z" fill="#465e50" fill-opacity="0.25" stroke-width="2" />
<path d="M 500,758 C 700,758 700,544 900,544 L 900,546 C 700,546 700,-9223372036854775048 500,-9223372036854775048 Z" fill="#465e50" fill-opacity="0.25" stroke-width="2" />
<path d="M 500,758 C 700,758 700,544 900,544 L 900,546 C 700,546 700,-9223372036854775048 500,-9223372036854775048 Z" fill="#465e50" fill-opacity="0.25" stroke-width="2" />
<path d="M 500,758 C 700,758 700,544 900,544 L 900,546 C 700,546 700,-9223372036854775048 500,-9223372036854775048 Z" fill="#465e50" fill-opacity="0.25" stroke-width="2" />
<path d="M 500,758 C 700,758 700,544 900,544 L 900,546 C 700,546 700,-9223372036854775048 500,-9223372036854775048 Z" fill="#465e50" fill-opacity="0.25" stroke-width="2" />
<path d="M 500,758 C 700,758 700,544 900,544 L 900,546 C 700,546 700,-9223372036854775048 500,-9223372036854775048 Z" fill="#465e50" fill-opacity="0.25" stroke-width="2" />
<path d="M 500,758 C 700,758 700,544 900,544 L 900,546 C 700,546 700,-9223372036854775048 500,-9223372036854775048 Z" fill="#465e50" fill-opacity="0.25" stroke-width="2" />
<path d="M 500,758 C 700,758 700,544 900,544 L 900,546 C 700,546 700,-9223372036854775048 500,-9223372036854775048 Z" fill="#465e50" fill-opacity="0.25" stroke-width="2" />
<path d="M 500,758 C 700,758 700,544 900,544 L 900,546 C 700,546 700,-9223372036854775048 500,-9223372036854775048 Z" fill="#465e50" fill-opacity="0.25" stroke-width="2" />
<path d="M 500,758 C 700,758 700,765 900,765 L 900,767 C 700,767 700,-9223372036854775048 500,-9223372036854775048 Z" fill="#465e50" fill-opacity="0.25" stroke-width="2" />
<path d="M 500,758 C 700,758 700,544 900,544 L 900,546 C 700,546 700,-9223372036854775048 500,-9223372036854775048 Z" fill="#465e50" fill-opacity="0.25" stroke-width="2" />
<path d="M 500,758 C 700,758 700,544 900,544 L 900,546 C 700,546 700,-9223372036854775048 500,-9223372036854775048 Z" fill="#465e50" fill-opacity="0.25" stroke-width="2" />
<path d="M 500,758 C 700,758 700,544 900,544 L 900,546 C 700,546 700,-9223372036854775048 500,-9223372036854775048 Z" fill="#465e50" fill-opacity="0.25" stroke-width="2" />
<path d="M 500,758 C 700,758 700,544 900,544 L 900,546 C 700,546 700,-9223372036854775048 500,-9223372036854775048 Z" fill="#465e50" fill-opacity="0.25" stroke-width="2" />
<path d="M 500,758 C 700,758 700,544 900,544 L 900,546 C 700,546 700,-9223372036854775048 500,-9223372036854775048 Z" fill="#465e50" fill-opacity="0.25" stroke-width="2" />
<path d="M 50,779 C 250,779 250,758 450,758 L 450,760 C 250,760 250,781 50,781 Z" fill="#486150" fill-opacity="0.25" stroke-width="2" />
<path d="M 50,578 C 250,578 250,758 450,758 L 450,760 C 250,760 250,580 50,580 Z" fill="#364850" fill-opacity="0.25" stroke-width="2" />
<path d="M 50,578 C 250,578 250,758 450,758 L 450,760 C 250,760 250,580 50,580 Z" fill="#364850" fill-opacity="0.25" stroke-width="2" />
<path d="M 500,758 C 700,758 700,544 900,544 L 900,546 C 700,546 700,-9223372036854775048 500,-9223372036854775048 Z" fill="#465e50" fill-opacity="0.25" stroke-width="2" />
<path d="M 50,779 C 250,779 250,758 450,758 L 450,760 C 250,760 250,781 50,781 Z" fill="#486150" fill-opacity="0.25" stroke-width="2" />
<path d="M 50,779 C 250,779 250,758 450,758 L 450,760 C 250,760 250,781 50,781 Z" fill="#486150" fill-opacity="0.25" stroke-width="2" />
<path d="M 500,758 C 700,758 700,765 900,765 L 900,767 C 700,767 700,-9223372036854775048 500,-9223372036854775048 Z" fill="#465e50" fill-opacity="0.25" stroke-width="2" />
<path d="M 50,578 C 250,578 250,758 450,758 L 450,760 C 250,760 250,580 50,580 Z" fill="#364850" fill-opacity="0.25" stroke-width="2" />
<path d="M 500,758 C 700,758 700,544 900,544 L 900,546 C 700,546 700,-9223372036854775048 500,-9223372036854775048 Z" fill="#465e50" fill-opacity="0.25" stroke-width="2" />
<path d="M 50,578 C 250,578 250,758 450,758 L 450,760 C 250,760 250,580 50,580 Z" fill="#364850" fill-opacity="0.25" stroke-width="2" />
<path d="M 50,578 C 250,578 250,758 450,758 L 450,760 C 250,760 250,580 50,580 Z" fill="#364850" fill-opacity="0.25" stroke-width="2" />
<path d="M 50,578 C 250,578 250,758 450,758 L 450,760 C 250,760 250,580 50,580 Z" fill="#364850" fill-opacity="0.25" stroke-width="2" />
<path d="M 50,578 C 250,578 250,758 450,758 L 450,760 C 250,760 250,580 50,580 Z" fill="#364850" fill-opacity="0.25" stroke-width="2" />
<path d="M 500,758 C 700,758 700,544 900,544 L 900,546 C 700,546 700,-9223372036854775048 500,-9223372036854775048 Z" fill="#465e50" fill-opacity="0.25" stroke-width="2" />
<path d="M 50,578 C 250,578 250,758 450,758 L 450,760 C 250,760 250,580 50,580 Z" fill="#364850" fill-opacity="0.25" stroke-width="2" />
<path d="M 500,758 C 700,758 700,544 900,544 L 900,546 C 700,546 700,-9223372036854775048 500,-9223372036854775048 Z" fill="#465e50" fill-opacity="0.25" stroke-width="2" />
<path d="M 50,578 C 250,578 250,758 450,758 L 450,760 C 250,760 250,580 50,580 Z" fill="#364850" fill-opacity="0.25" stroke-width="2" />
<path d="M 500,758 C 700,758 700,544 900,544 L 900,546 C 700,546 700,-9223372036854775048 500,-9223372036854775048 Z" fill="#465e50" fill-opacity="0.25" stroke-width="2" />
<path d="M 50,779 C 250,779 250,758 450,758 L 450,760 C 250,760 250,781 50,781 Z" fill="#486150" fill-opacity="0.25" stroke-width="2" />
<path d="M 500,758 C 700,758 700,544 900,544 L 900,546 C 700,546 700,-9223372036854775048 500,-9223372036854775048 Z" fill="#465e50" fill-opacity="0.25" stroke-width="2" />
<path d="M 500,758 C 700,758 700,544 900,544 L 900,546 C 700,546 700,-9223372036854775048 500,-9223372036854775048 Z" fill="#465e50" fill-opacity="0.25" stroke-width="2" />
<path d="M 50,578 C 250,578 250,758 450,758 L 450,760 C 250,760 250,580 50,580 Z" fill="#364850" fill-opacity="0.25" stroke-width="2" />
<path d="M 500,758 C 700,758 700,544 900,544 L 900,546 C 700,546 700,-9223372036854775048 500,-9223372036854775048 Z" fill="#465e50" fill-opacity="0.25" stroke-width="2" />
<path d="M 50,578 C 250,578 250,758 450,758 L 450,760 C 250,760 250,580 50,580 Z" fill="#364850" fill-opacity="0.25" stroke-width="2" />
<path d="M 50,779 C 250,779 250,758 450,758 L 450,760 C 250,760 250,781 50,781 Z" fill="#486150" fill-opacity="0.25" stroke-width="2" />
<path d="M 50,578 C 250,578 250,758 450,758 L 450,760 C 250,760 250,580 50,580 Z" fill="#364850" fill-opacity="0.25" stroke-width="2" />
<path d="M 50,578 C 250,578 250,758 450,758 L 450,760 C 250,760 250,580 50,580 Z" fill="#364850" fill-opacity="0.25" stroke-width="2" />
<path d="M 500,758 C 700,758 700,544 900,544 L 900,546 C 700,546 700,-9223372036854775048 500,-9223372036854775048 Z" fill="#465e50" fill-opacity="0.25" stroke-width="2" />
<path d="M 50,578 C 250,578 250,758 450,758 L 450,760 C 250,760 250,580 50,580 Z" fill="#364850" fill-opacity="0.25" stroke-width="2" />
<path d="M 50,578 C 250,578 250,758 450,758 L 450,760 C 250,760 250,580 50,580 Z" fill="#364850" fill-opacity="0.25" stroke-width="2" />
<path d="M 50,779 C 250,779 250,758 450,758 L 450,760 C 250,760 250,781 50,781 Z" fill="#486150" fill-opacity="0.25" stroke-width="2" />
<path d="M 50,578 C 250,578 250,758 450,758 L 450,760 C 250,760 250,580 50,580 Z" fill="#364850" fill-opacity="0.25" stroke-width="2" />
<path d="M 50,578 C 250,578 250,758 450,758 L 450,760 C 250,760 250,580 50,580 Z" fill="#364850" fill-opacity="0.25" stroke-width="2" />
<path d="M 50,779 C 250,779 250,758 450,758 L 450,760 C 250,760 250,781 50,781 Z" fill="#486150" fill-opacity="0.25" stroke-width="2" />
<path d="M 50,578 C 250,578 250,758 450,758 L 450,760 C 250,760 250,580 50,580 Z" fill="#364850" fill-opacity="0.25" stroke-width="2" />
<path d="M 500,758 C 700,758 700,544 900,544 L 900,546 C 700,546 700,-9223372036854775048 500,-9223372036854775048 Z" fill="#465e50" fill-opacity="0.25" stroke-width="2" />
<path d="M 50,779 C 250,779 250,758 450,758 L 450,760 C 250,760 250,781 50,781 Z" fill="#486150" fill-opacity="0.25" stroke-width="2" />
<path d="M 500,758 C 700,758 700,544 900,544 L 900,546 C 700,546 700,-9223372036854775048 500,-9223372036854775048 Z" fill="#465e50" fill-opacity="0.25" stroke-width="2" />
<path d="M 50,578 C 250,578 250,758 450,758 L 450,760 C 250,760 250,580 50,580 Z" fill="#364850" fill-opacity="0.25" stroke-width="2" />
<path d="M 50,779 C 250,779 250,758 450,758 L 450,760 C 250,760 250,781 50,781 Z" fill="#486150" fill-opacity="0.25" stroke-width="2" />
<path d="M 500,758 C 700,758 700,544 900,544 L 900,546 C 700,546 700,-9223372036854775048 500,-9223372036854775048 Z" fill="#465e50" fill-opacity="0.25" stroke-width="2" />
<path d="M 500,758 C 700,758 700,544 900,544 L 900,546 C 700,546 700,-9223372036854775048 500,-9223372036854775048 Z" fill="#465e50" fill-opacity="0.25" stroke-width="2" />
<path d="M 50,578 C 250,578 250,758 450,758 L 450,760 C 250,760 250,580 50,580 Z" fill="#364850" fill-opacity="0.25" stroke-width="2" />
<path d="M 50,578 C 250,578 250,758 450,758 L 450,760 C 250,760 250,580 50,580 Z" fill="#364850" fill-opacity="0.25" stroke-width="2" />
<path d="M 500,758 C 700,758 700,765 900,765 L 900,767 C 700,767 700,-9223372036854775048 500,-9223372036854775048 Z" fill="#465e50" fill-opacity="0.25" stroke-width="2" />
<path d="M 50,578 C 250,578 250,758 450,758 L 450,760 C 250,760 250,580 50,580 Z" fill="#364850" fill-opacity="0.25" stroke-width="2" />
<path d="M 50,578 C 250,578 250,758 450,758 L 450,760 C 250,760 250,580 50,580 Z" fill="#364850" fill-opacity="0.25" stroke-width="2" />
<path d="M 50,578 C 250,578 250,758 450,758 L 450,760 C 250,760 250,580 50,580 Z" fill="#364850" fill-opacity="0.25" stroke-width="2" />
<path d="M 50,578 C 250,578 250,758 450,758 L 450,760 C 250,760 250,580 50,580 Z" fill="#364850" fill-opacity="0.25" stroke-width="2" />
<path d="M 50,578 C 250,578 250,758 450,758 L 450,760 C 250,760 250,580 50,580 Z" fill="#364850" fill-opacity="0.25" stroke-width="2" />
<path d="M 50,578 C 250,578 250,758 450,758 L 450,760 C 250,760 250,580 50,580 Z" fill="#364850" fill-opacity="0.25" stroke-width="2" />
<path d="M 50,578 C 250,578 250,758 450,758 L 450,760 C 250,760 250,580 50,580 Z" fill="#364850" fill-opacity="0.25" stroke-width="2" />
<path d="M 500,758 C 700,758 700,544 900,544 L 900,546 C 700,546 700,-9223372036854775048 500,-9223372036854775048 Z" fill="#465e50" fill-opacity="0.25" stroke-width="2" />
<path d="M 50,779 C 250,779 250,758 450,758 L 450,760 C 250,760 250,781 50,781 Z" fill="#486150" fill-opacity="0.25" stroke-width="2" />
<path d="M 50,779 C 250,779 250,758 450,758 L 450,760 C 250,760 250,781 50,781 Z" fill="#486150" fill-opacity="0.25" stroke-width="2" />
<path d="M 50,578 C 250,578 250,758 450,758 L 450,760 C 250,760 250,580 50,580 Z" fill="#364850" fill-opacity="0.25" stroke-width="2" />
<path d="M 50,578 C 250,578 250,758 450,758 L 450,760 C 250,760 250,580 50,580 Z" fill="#364850" fill-opacity="0.25" stroke-width="2" />
<path d="M 50,578 C 250,578 250,758 450,758 L 450,760 C 250,760 250,580 50,580 Z" fill="#364850" fill-opacity="0.25" stroke-width="2" />
<path d="M 50,578 C 250,578 250,758 450,758 L 450,760 C 250,760 250,580 50,580 Z" fill="#364850" fill-opacity="0.25" stroke-width="2" />
<path d="M 0,0 L 0,613 L 50,613 L 50,0 Z" fill="#0000fa" fill-opacity="1.0" />
<path d="M 900,0 L 900,318 L 950,318 L 950,0 Z" fill="#0000fa" fill-opacity="1.0" />
<path d="M 900,318 L 900,567 L 950,567 L 950,318 Z" fill="#274efa" fill-opacity="1.0" />
<path d="M 900,567 L 900,781 L 950,781 L 950,567 Z" fill="#468cfa" fill-opacity="1.0" />
<path d="M 450,0 L 450,134 L 500,134 L 500,0 Z" fill="#0000fa" fill-opacity="1.0" />
<path d="M 0,613 L 0,747 L 50,747 L 50,613 Z" fill="#4c98fa" fill-opacity="1.0" />
<path d="M 450,134 L 450,262 L 500,262 L 500,134 Z" fill="#1020fa" fill-opacity="1.0" />
<path d="M 450,262 L 450,381 L 500,381 L 500,262 Z" fill="#2040fa" fill-opacity="1.0" />
<path d="M 450,381 L 450,422 L 500,422 L 500,381 Z" fill="#2f5efa" fill-opacity="1.0" />
<path d="M 0,747 L 0,786 L 50,786 L 50,747 Z" fill="#5dbafa" fill-opacity="1.0" />
<path d="M 450,422 L 450,453 L 500,453 L 500,422 Z" fill="#3468fa" fill-opacity="1.0" />
<path d="M 450,453 L 450,481 L 500,481 L 500,453 Z" fill="#3870fa" fill-opacity="1.0" />
<path d="M 450,481 L 450,503 L 500,503 L 500,481 Z" fill="#3c78fa" fill-opacity="1.0" />
<path d="M 450,503 L 450,522 L 500,522 L 500,503 Z" fill="#3e7cfa" fill-opacity="1.0" />
<path d="M 450,522 L 450,540 L 500,540 L 500,522 Z" fill="#4182fa" fill-opacity="1.0" />
<path d="M 450,540 L 450,558 L 500,558 L 500,540 Z" fill="#4386fa" fill-opacity="1.0" />
<path d="M 450,558 L 450,574 L 500,574 L 500,558 Z" fill="#458afa" fill-opacity="1.0" />
<path d="M 900,781 L 900,797 L 950,797 L 950,781 Z" fill="#61c2fa" fill-opacity="1.0" />
<path d="M 450,574 L 450,586 L 500,586 L 500,574 Z" fill="#478efa" fill-opacity="1.0" />
<path d="M 450,586 L 450,598 L 500,598 L 500,586 Z" fill="#4992fa" fill-opacity="1.0" />
<path d="M 0,786 L 0,798 L 50,798 L 50,786 Z" fill="#62c4fa" fill-opacity="1.0" />
<path d="M 450,598 L 450,606 L 500,606 L 500,598 Z" fill="#4a94fa" fill-opacity="1.0" />
<path d="M 450,606 L 450,614 L 500,614 L 500,606 Z" fill="#4b96fa" fill-opacity="1.0" />
<path d="M 450,614 L 450,622 L 500,622 L 500,614 Z" fill="#4c98fa" fill-opacity="1.0" />
<path d="M 450,622 L 450,630 L 500,630 L 500,622 Z" fill="#4d9afa" fill-opacity="1.0" />
<path d="M 450,630 L 450,637 L 500,637 L 500,630 Z" fill="#4e9cfa" fill-opacity="1.0" />
<path d="M 450,637 L 450,644 L 500,644 L 500,637 Z" fill="#4f9efa" fill-opacity="1.0" />
<path d="M 450,644 L 450,651 L 500,651 L 500,644 Z" fill="#50a0fa" fill-opacity="1.0" />
<path d="M 450,651 L 450,657 L 500,657 L 500,651 Z" fill="#51a2fa" fill-opacity="1.0" />
<path d="M 450,657 L 450,663 L 500,663 L 500,657 Z" fill="#52a4fa" fill-opacity="1.0" />
<path d="M 450,663 L 450,669 L 500,669 L 500,663 Z" fill="#52a4fa" fill-opacity="1.0" />
<path d="M 450,669 L 450,675 L 500,675 L 500,669 Z" fill="#53a6fa" fill-opacity="1.0" />
<path d="M 450,675 L 450,681 L 500,681 L 500,675 Z" fill="#54a8fa" fill-opacity="1.0" />
<path d="M 450,681 L 450,687 L 500,687 L 500,681 Z" fill="#55aafa" fill-opacity="1.0" />
<path d="M 450,687 L 450,693 L 500,693 L 500,687 Z" fill="#55aafa" fill-opacity="1.0" />
<path d="M 450,693 L 450,698 L 500,698 L 500,693 Z" fill="#56acfa" fill-opacity="1.0" />
<path d="M 450,698 L 450,703 L 500,703 L 500,698 Z" fill="#57aefa" fill-opacity="1.0" />
<path d="M 450,703 L 450,707 L 500,707 L 500,703 Z" fill="#57aefa" fill-opacity="1.0" />
<path d="M 450,707 L 450,711 L 500,711 L 500,707 Z" fill="#58b0fa" fill-opacity="1.0" />
<path d="M 450,711 L 450,715 L 500,715 L 500,711 Z" fill="#58b0fa" fill-opacity="1.0" />
<path d="M 450,715 L 450,719 L 500,719 L 500,715 Z" fill="#59b2fa" fill-opacity="1.0" />
<path d="M 450,719 L 450,723 L 500,723 L 500,719 Z" fill="#59b2fa" fill-opacity="1.0" />
<path d="M 450,723 L 450,727 L 500,727 L 500,723 Z" fill="#5ab4fa" fill-opacity="1.0" />
<path d="M 450,727 L 450,731 L 500,731 L 500,727 Z" fill="#5ab4fa" fill-opacity="1.0" />
<path d="M 450,731 L 450,734 L 500,734 L 500,731 Z" fill="#5bb6fa" fill-opacity="1.0" />
<path d="M 450,734 L 450,737 L 500,737 L 500,734 Z" fill="#5bb6fa" fill-opacity="1.0" />
<path d="M 450,737 L 450,740 L 500,740 L 500,737 Z" fill="#5cb8fa" fill-opacity="1.0" />
<path d="M 450,740 L 450,742 L 500,742 L 500,740 Z" fill="#5cb8fa" fill-opacity="1.0" />
<path d="M 450,742 L 450,744 L 500,744 L 500,742 Z" fill="#5cb8fa" fill-opacity="1.0" />
<path d="M 450,744 L 450,746 L 500,746 L 500,744 Z" fill="#5dbafa" fill-opacity="1.0" />
<path d="M 450,746 L 450,747 L 500,747 L 500,746 Z" fill="#5dbafa" fill-opacity="1.0" />
<path d="M 450,747 L 450,748 L 500,748 L 500,747 Z" fill="#5dbafa" fill-opacity="1.0" />
<path d="M 450,748 L 450,749 L 500,749 L 500,748 Z" fill="#5dbafa" fill-opacity="1.0" />
<path d="M 450,749 L 450,750 L 500,750 L 500,749 Z" fill="#5dbafa" fill-opacity="1.0" />
<path d="M 450,750 L 450,751 L 500,751 L 500,750 Z" fill="#5dbafa" fill-opacity="1.0" />
<path d="M 450,751 L 450,752 L 500,752 L 500,751 Z" fill="#5dbafa" fill-opacity="1.0" />
<path d="M 450,752 L 450,753 L 500,753 L 500,752 Z" fill="#5ebcfa" fill-opacity="1.0" />
<path d="M 450,753 L 450,754 L 500,754 L 500,753 Z" fill="#5ebcfa" fill-opacity="1.0" />
<path d="M 450,754 L 450,755 L 500,755 L 500,754 Z" fill="#5ebcfa" fill-opacity="1.0" />
<path d="M 450,755 L 450,756 L 500,756 L 500,755 Z" fill="#5ebcfa" fill-opacity="1.0" />
<path d="M 450,756 L 450,757 L 500,757 L 500,756 Z" fill="#5ebcfa" fill-opacity="1.0" />
<path d="M 450,757 L 450,758 L 500,758 L 500,757 Z" fill="#5ebcfa" fill-opacity="1.0" />
<path d="M 450,758 L 450,759 L 500,759 L 500,758 Z" fill="#5ebcfa" fill-opacity="1.0" />
<path d="M 450,759 L 450,759 L 500,759 L 500,759 Z" fill="#5ebcfa" fill-opacity="1.0" />
<path d="M 450,759 L 450,759 L 500,759 L 500,759 Z" fill="#5ebcfa" fill-opacity="1.0" />
<path d="M 450,759 L 450,759 L 500,759 L 500,759 Z" fill="#5ebcfa" fill-opacity="1.0" />
<path d="M 450,759 L 450,759 L 500,759 L 500,759 Z" fill="#5ebcfa" fill-opacity="1.0" />
<path d="M 450,759 L 450,759 L 500,759 L 500,759 Z" fill="#5ebcfa" fill-opacity="1.0" />
<path d="M 450,759 L 450,759 L 500,759 L 500,759 Z" fill="#5ebcfa" fill-opacity="1.0" />
<path d="M 450,759 L 450,759 L 500,759 L 500,759 Z" fill="#5ebcfa" fill-opacity="1.0" />
<path d="M 450,759 L 450,759 L 500,759 L 500,759 Z" fill="#5ebcfa" fill-opacity="1.0" />
<path d="M 450,759 L 450,759 L 500,759 L 500,759 Z" fill="#5ebcfa" fill-opacity="1.0" />
<path d="M 450,759 L 450,759 L 500,759 L 500,759 Z" fill="#5ebcfa" fill-opacity="1.0" />
<path d="M 450,759 L 450,759 L 500,759 L 500,759 Z" fill="#5ebcfa" fill-opacity="1.0" />
<path d="M 450,759 L 450,759 L 500,759 L 500,759 Z" fill="#5ebcfa" fill-opacity="1.0" />
<path d="M 450,759 L 450,759 L 500,759 L 500,759 Z" fill="#5ebcfa" fill-opacity="1.0" />
<path d="M 450,759 L 450,759 L 500,759 L 500,759 Z" fill="#5ebcfa" fill-opacity="1.0" />
<path d="M 450,759 L 450,759 L 500,759 L 500,759 Z" fill="#5ebcfa" fill-opacity="1.0" />
<path d="M 450,759 L 450,759 L 500,759 L 500,759 Z" fill="#5ebcfa" fill-opacity="1.0" />
<path d="M 450,759 L 450,759 L 500,759 L 500,759 Z" fill="#5ebcfa" fill-opacity="1.0" />
<path d="M 450,759 L 450,759 L 500,759 L 500,759 Z" fill="#5ebcfa" fill-opacity="1.0" />
<path d="M 450,759 L 450,759 L 500,759 L 500,759 Z" fill="#5ebcfa" fill-opacity="1.0" />
<path d="M 450,759 L 450,759 L 500,759 L 500,759 Z" fill="#5ebcfa" fill-opacity="1.0" />
<path d="M 450,759 L 450,759 L 500,759 L 500,759 Z" fill="#5ebcfa" fill-opacity="1.0" />
<path d="M 450,759 L 450,759 L 500,759 L 500,759 Z" fill="#5ebcfa" fill-opacity="1.0" />
<path d="M 0,798 L 0,798 L 50,798 L 50,798 Z" fill="#63c6fa" fill-opacity="1.0" />
<path d="M 450,759 L 450,759 L 500,759 L 500,759 Z" fill="#5ebcfa" fill-opacity="1.0" />
<path d="M 450,759 L 450,759 L 500,759 L 500,759 Z" fill="#5ebcfa" fill-opacity="1.0" />
<path d="M 450,759 L 450,759 L 500,759 L 500,759 Z" fill="#5ebcfa" fill-opacity="1.0" />
<path d="M 450,759 L 450,759 L 500,759 L 500,759 Z" fill="#5ebcfa" fill-opacity="1.0" />
<path d="M 450,759 L 450,759 L 500,759 L 500,759 Z" fill="#5ebcfa" fill-opacity="1.0" />
<path d="M 450,759 L 450,759 L 500,759 L 500,759 Z" fill="#5ebcfa" fill-opacity="1.0" />
<path d="M 450,759 L 450,759 L 500,759 L 500,759 Z" fill="#5ebcfa" fill-opacity="1.0" />
<path d="M 450,759 L 450,759 L 500,759 L 500,759 Z" fill="#5ebcfa" fill-opacity="1.0" />
<path d="M 450,759 L 450,759 L 500,759 L 500,759 Z" fill="#5ebcfa" fill-opacity="1.0" />
<path d="M 450,759 L 450,759 L 500,759 L 500,759 Z" fill="#5ebcfa" fill-opacity="1.0" />
<path d="M 450,759 L 450,759 L 500,759 L 500,759 Z" fill="#5ebcfa" fill-opacity="1.0" />
<path d="M 450,759 L 450,759 L 500,759 L 500,759 Z" fill="#5ebcfa" fill-opacity="1.0" />
<path d="M 450,759 L 450,759 L 500,759 L 500,759 Z" fill="#5ebcfa" fill-opacity="1.0" />
<path d="M 450,759 L 450,759 L 500,759 L 500,759 Z" fill="#5ebcfa" fill-opacity="1.0" />
<path d="M 900,797 L 900,797 L 950,797 L 950,797 Z" fill="#63c6fa" fill-opacity="1.0" />
<path d="M 0,798 L 0,798 L 50,798 L 50,798 Z" fill="#63c6fa" fill-opacity="1.0" />
<path d="M 450,759 L 450,759 L 500,759 L 500,759 Z" fill="#5ebcfa" fill-opacity="1.0" />
<path d="M 0,798 L 0,798 L 50,798 L 50,798 Z" fill="#63c6fa" fill-opacity="1.0" />
<path d="M 0,798 L 0,798 L 50,798 L 50,798 Z" fill="#63c6fa" fill-opacity="1.0" />
<path d="M 450,759 L 450,759 L 500,759 L 500,759 Z" fill="#5ebcfa" fill-opacity="1.0" />
<path d="M 450,759 L 450,759 L 500,759 L 500,759 Z" fill="#5ebcfa" fill-opacity="1.0" />
<path d="M 450,759 L 450,759 L 500,759 L 500,759 Z" fill="#5ebcfa" fill-opacity="1.0" />
<path d="M 450,759 L 450,759 L 500,759 L 500,759 Z" fill="#5ebcfa" fill-opacity="1.0" />
<path d="M 450,759 L 450,759 L 500,759 L 500,759 Z" fill="#5ebcfa" fill-opacity="1.0" />
<path d="M 450,759 L 450,759 L 500,759 L 500,759 Z" fill="#5ebcfa" fill-opacity="1.0" />
<path d="M 450,759 L 450,759 L 500,759 L 500,759 Z" fill="#5ebcfa" fill-opacity="1.0" />
<path d="M 450,759 L 450,759 L 500,759 L 500,759 Z" fill="#5ebcfa" fill-opacity="1.0" />
<path d="M 450,759 L 450,759 L 500,759 L 500,759 Z" fill="#5ebcfa" fill-opacity="1.0" />
<path d="M 450,759 L 450,759 L 500,759 L 500,759 Z" fill="#5ebcfa" fill-opacity="1.0" />
<path d="M 450,759 L 450,759 L 500,759 L 500,759 Z" fill="#5ebcfa" fill-opacity="1.0" />
<path d="M 450,759 L 450,759 L 500,759 L 500,759 Z" fill="#5ebcfa" fill-opacity="1.0" />
<path d="M 450,759 L 450,759 L 500,759 L 500,759 Z" fill="#5ebcfa" fill-opacity="1.0" />
<path d="M 450,759 L 450,759 L 500,759 L 500,759 Z" fill="#5ebcfa" fill-opacity="1.0" />
<path d="M 450,759 L 450,759 L 500,759 L 500,759 Z" fill="#5ebcfa" fill-opacity="1.0" />
<path d="M 450,759 L 450,759 L 500,759 L 500,759 Z" fill="#5ebcfa" fill-opacity="1.0" />
<path d="M 450,759 L 450,759 L 500,759 L 500,759 Z" fill="#5ebcfa" fill-opacity="1.0" />
<path d="M 450,759 L 450,759 L 500,759 L 500,759 Z" fill="#5ebcfa" fill-opacity="1.0" />
<path d="M 450,759 L 450,759 L 500,759 L 500,759 Z" fill="#5ebcfa" fill-opacity="1.0" />
<path d="M 450,759 L 450,759 L 500,759 L 500,759 Z" fill="#5ebcfa" fill-opacity="1.0" />
<path d="M 450,759 L 450,759 L 500,759 L 500,759 Z" fill="#5ebcfa" fill-opacity="1.0" />
<path d="M 450,759 L 450,759 L 500,759 L 500,759 Z" fill="#5ebcfa" fill-opacity="1.0" />
<path d="M 450,759 L 450,759 L 500,759 L 500,759 Z" fill="#5ebcfa" fill-opacity="1.0" />
<path d="M 450,759 L 450,759 L 500,759 L 500,759 Z" fill="#5ebcfa" fill-opacity="1.0" />
<path d="M 450,759 L 450,759 L 500,759 L 500,759 Z" fill="#5ebcfa" fill-opacity="1.0" />
<path d="M 450,759 L 450,759 L 500,759 L 500,759 Z" fill="#5ebcfa" fill-opacity="1.0" />
<path d="M 450,759 L 450,759 L 500,759 L 500,759 Z" fill="#5ebcfa" fill-opacity="1.0" />
<path d="M 450,759 L 450,759 L 500,759 L 500,759 Z" fill="#5ebcfa" fill-opacity="1.0" />
<path d="M 450,759 L 450,759 L 500,759 L 500,759 Z" fill="#5ebcfa" fill-opacity="1.0" />
<path d="M 450,759 L 450,759 L 500,759 L 500,759 Z" fill="#5ebcfa" fill-opacity="1.0" />
<path d="M 450,759 L 450,759 L 500,759 L 500,759 Z" fill="#5ebcfa" fill-opacity="1.0" />
<path d="M 450,759 L 450,759 L 500,759 L 500,759 Z" fill="#5ebcfa" fill-opacity="1.0" />
<path d="M 450,759 L 450,759 L 500,759 L 500,759 Z" fill="#5ebcfa" fill-opacity="1.0" />
<path d="M 450,759 L 450,759 L 500,759 L 500,759 Z" fill="#5ebcfa" fill-opacity="1.0" />
<path d="M 450,759 L 450,759 L 500,759 L 500,759 Z" fill="#5ebcfa" fill-opacity="1.0" />
<path d="M 450,759 L 450,759 L 500,759 L 500,759 Z" fill="#5ebcfa" fill-opacity="1.0" />
<path d="M 450,759 L 450,759 L 500,759 L 500,759 Z" fill="#5ebcfa" fill-opacity="1.0" />
<path d="M 450,759 L 450,759 L 500,759 L 500,759 Z" fill="#5ebcfa" fill-opacity="1.0" />
<path d="M 450,759 L 450,759 L 500,759 L 500,759 Z" fill="#5ebcfa" fill-opacity="1.0" />
<path d="M 450,759 L 450,759 L 500,759 L 500,759 Z" fill="#5ebcfa" fill-opacity="1.0" />
<path d="M 450,759 L 450,759 L 500,759 L 500,759 Z" fill="#5ebcfa" fill-opacity="1.0" />
<path d="M 450,759 L 450,759 L 500,759 L 500,759 Z" fill="#5ebcfa" fill-opacity="1.0" />
<path d="M 450,759 L 450,759 L 500,759 L 500,759 Z" fill="#5ebcfa" fill-opacity="1.0" />
<path d="M 450,759 L 450,759 L 500,759 L 500,759 Z" fill="#5ebcfa" fill-opacity="1.0" />
<path d="M 450,759 L 450,759 L 500,759 L 500,759 Z" fill="#5ebcfa" fill-opacity="1.0" />
<path d="M 450,759 L 450,759 L 500,759 L 500,759 Z" fill="#5ebcfa" fill-opacity="1.0" />
<path d="M 450,759 L 450,759 L 500,759 L 500,759 Z" fill="#5ebcfa" fill-opacity="1.0" />
<path d="M 450,759 L 450,759 L 500,759 L 500,759 Z" fill="#5ebcfa" fill-opacity="1.0" />
<path d="M 450,759 L 450,759 L 500,759 L 500,759 Z" fill="#5ebcfa" fill-opacity="1.0" />
<text x="500" y="67" font-size="12">Freeman Research Lakes</text>
<text x="950" y="159" font-size="12">Utilities</text>
<text x="500" y="198" font-size="12">Central Plant</text>
<text x="50" y="306" font-size="12">Jackson</text>
<text x="500" y="321" font-size="12">South Plant</text>
<text x="500" y="401" font-size="12">Student Recreation Center</text>
<text x="550" y="331" font-size="12">Harris Dining Hall</text>
<text x="950" y="442" font-size="12">Irrigation</text>
<text x="550" y="341" font-size="12">West Plant</text>
<text x="550" y="351" font-size="12">East Plant</text>
<text x="550" y="361" font-size="12">South East Plant</text>
<text x="550" y="371" font-size="12">San Jacinto</text>
<text x="550" y="381" font-size="12">Hines</text>
<text x="550" y="391" font-size="12">Unmetered Use</text>
<text x="550" y="401" font-size="12">West Campus Soccer Field</text>
<text x="550" y="391" font-size="12">Aquarena Spring Golf Course</text>
<text x="550" y="401" font-size="12">Gaillardia and Chataqua Halls (NCH)</text>
<text x="550" y="391" font-size="12">UEC</text>
<text x="550" y="401" font-size="12">Track Field</text>
<text x="550" y="391" font-size="12">Sterry Hall</text>
<text x="550" y="401" font-size="12">Bobcat North Complex</text>
<text x="550" y="391" font-size="12">Mesquite Hall (Previously Beretta)</text>
<text x="550" y="401" font-size="12">Blanco Hall A Wing</text>
<text x="550" y="391" font-size="12">Lantana Hall</text>
<text x="550" y="401" font-size="12">Willow Hall (Round Rock Health Professions)</text>
<text x="550" y="391" font-size="12">Bexar Hall</text>
<text x="550" y="401" font-size="12">Alkek Library</text>
<text x="950" y="674" font-size="12">Domestic</text>
<text x="550" y="391" font-size="12">Lighted Field (2942)</text>
<text x="50" y="680" font-size="12">Freeman Artesian</text>
<text x="550" y="401" font-size="12">Blanco Hall C Wing</text>
<text x="550" y="391" font-size="12">Ingram School of Engineering</text>
<text x="550" y="401" font-size="12">Freedom Five and O'shea Halls (Previously Angelina and San Gabriel Halls) (MSH)</text>
<text x="550" y="391" font-size="12">Bobcat Village Rec Fields</text>
<text x="550" y="401" font-size="12">Other City-Served Meters</text>
<text x="550" y="391" font-size="12">Sign/University Dr.</text>
<text x="550" y="401" font-size="12">Concho Green</text>
<text x="550" y="391" font-size="12">Moore/Holland St. Sidewalk</text>
<text x="550" y="401" font-size="12">Performing Arts</text>
<text x="550" y="391" font-size="12">Elliott Hall Administration</text>
<text x="550" y="401" font-size="12">Performing Arts Center</text>
<text x="550" y="391" font-size="12">Rec Sports</text>
<text x="550" y="401" font-size="12">Wood Street Garage</text>
<text x="550" y="391" font-size="12">Alkek 1</text>
<text x="550" y="401" font-size="12">Bruce and Gloria Ingram Hall (ESB)</text>
<text x="550" y="391" font-size="12">Baseball</text>
<text x="550" y="401" font-size="12">Brogdon Hall</text>
<text x="550" y="391" font-size="12">JC Kellam</text>
<text x="550" y="401" font-size="12">Tomas Rivera</text>
<text x="550" y="391" font-size="12">Supple Science Center</text>
<text x="550" y="401" font-size="12">UAC</text>
<text x="550" y="391" font-size="12">Family and Consumer Science</text>
<text x="550" y="401" font-size="12">Mitte Building</text>
<text x="550" y="391" font-size="12">Student Health Center</text>
<text x="550" y="401" font-size="12">McCoy Business Building</text>
<text x="550" y="391" font-size="12">Retama Hall</text>
<text x="550" y="401" font-size="12">Flowers</text>
<text x="550" y="391" font-size="12">Liberal Arts/Derrick</text>
<text x="550" y="401" font-size="12">Jones</text>
<text x="550" y="391" font-size="12">Centennial Hall</text>
<text x="550" y="401" font-size="12">Retama</text>
<text x="550" y="391" font-size="12">Boiler Plant</text>
<text x="550" y="401" font-size="12">Clear Springs</text>
<text x="550" y="399" font-size="12">Old Main</text>
<text x="550" y="409" font-size="12">Physical Plant</text>
<text x="550" y="399" font-size="12">Flowers Hall</text>
<text x="550" y="409" font-size="12">Blanco Hall B Wing</text>
<text x="550" y="399" font-size="12">University Residence</text>
<text x="550" y="409" font-size="12">Hill House Front</text>
<text x="550" y="399" font-size="12">Nursing Building (Round Rock)</text>
<text x="550" y="409" font-size="12">Live Oak Hall</text>
<text x="550" y="399" font-size="12">Aquatic Biology</text>
<text x="550" y="409" font-size="12">Education</text>
<text x="550" y="399" font-size="12">CoGen</text>
<text x="550" y="409" font-size="12">Music</text>
<text x="550" y="399" font-size="12">Hill House Side</text>
<text x="550" y="409" font-size="12">Alkek 2</text>
<text x="550" y="399" font-size="12">Health Pro/LBJSC Garage</text>
<text x="550" y="409" font-size="12">Falls and Sayers Halls (WCH)</text>
<text x="550" y="399" font-size="12">Centennial</text>
<text x="550" y="409" font-size="12">Jowers/Coliseum/Sewell Park</text>
<text x="550" y="399" font-size="12">Moore St. Housing Fill Line</text>
<text x="550" y="409" font-size="12">McCoy</text>
<text x="550" y="399" font-size="12">UDC</text>
<text x="550" y="409" font-size="12">Kirby Lane</text>
<text x="550" y="399" font-size="12">Supple Science</text>
<text x="550" y="409" font-size="12">Freeman Ranch</text>
<text x="550" y="399" font-size="12">Thornton House</text>
<text x="550" y="409" font-size="12">Bobcat Stadium</text>
<text x="550" y="399" font-size="12">Pedernales/Pecos</text>
<text x="550" y="409" font-size="12">Trinity</text>
<text x="550" y="399" font-size="12">Mitte Complex</text>
<text x="550" y="409" font-size="12">Theater</text>
<text x="550" y="399" font-size="12">Greenhouse</text>
<text x="550" y="409" font-size="12">Edward Gary Parking Garage</text>
<text x="550" y="399" font-size="12">IRL</text>
<text x="550" y="409" font-size="12">Alumni House</text>
<text x="550" y="399" font-size="12">State Street</text>
<text x="550" y="409" font-size="12">Round Rock Serviced Building</text>
<text x="550" y="399" font-size="12">LBJSC</text>
<text x="550" y="409" font-size="12">Evans Liberal Arts</text>
<text x="550" y="399" font-size="12">Hopkins Safty Building</text>
<text x="550" y="409" font-size="12">Print Shop</text>
<text x="550" y="399" font-size="12">San Marcos Hall #2</text>
<text x="550" y="409" font-size="12">WCH Fill line</text>
<text x="550" y="399" font-size="12">Grady Early</text>
<text x="550" y="409" font-size="12">Applied Arts Lower</text>
<text x="550" y="399" font-size="12">Brazos</text>
<text x="550" y="409" font-size="12">Comal</text>
<text x="550" y="399" font-size="12">STAR Park</text>
<text x="550" y="409" font-size="12">Bobcat Vill. Mill St. Parking Lot</text>
<text x="550" y="419" font-size="12">Arnold Hall</text>
<text x="550" y="429" font-size="12">Taylor Murphy</text>
<text x="550" y="439" font-size="12">San Jacinto Hall 1</text>
<text x="550" y="449" font-size="12">Pecan (UPD) Building</text>
<text x="550" y="459" font-size="12">Den</text>
<text x="550" y="469" font-size="12">Academic Services Building South</text>
<text x="550" y="479" font-size="12">San Jacinto Hall 2</text>
<text x="550" y="489" font-size="12">Tennis Courts</text>
<text x="550" y="499" font-size="12">San Marcos Hall #3</text>
<text x="550" y="509" font-size="12">San Marcos Hall #1</text>
<text x="550" y="519" font-size="12">Blanco</text>
<text x="550" y="529" font-size="12">Bobcat Village</text>
<text x="550" y="539" font-size="12">Speck St.Garage</text>
<text x="550" y="549" font-size="12">Berretta</text>
<text x="550" y="559" font-size="12">Admissions</text>
<text x="550" y="569" font-size="12">Music/LBJ Loop</text>
<text x="550" y="579" font-size="12">Chemistry</text>
<text x="550" y="589" font-size="12">North Campus Housing Fill Line</text>
<text x="550" y="599" font-size="12">Moeller House</text>
<text x="550" y="609" font-size="12">West Park</text>
<text x="550" y="619" font-size="12">Moore St. Parking</text>
<text x="550" y="629" font-size="12">The Meadows</text>
<text x="550" y="639" font-size="12">Aquarena Sign</text>
<text x="550" y="649" font-size="12">Evans Auditorium</text>
<text x="550" y="659" font-size="12">Matthew St Garage</text>
<text x="550" y="669" font-size="12">Butler Hall</text>
<text x="550" y="679" font-size="12">CDC</text>
<text x="550" y="689" font-size="12">Academic Support Cntr.</text>
<text x="550" y="699" font-size="12">Applied Arts Upper</text>
<text x="550" y="709" font-size="12">Math Computer Science Building</text>
<text x="550" y="719" font-size="12">DHRL</text>
<text x="550" y="729" font-size="12">Tennis Netafim</text>
<text x="550" y="739" font-size="12">Jackson Water Tower</text>
<text x="550" y="749" font-size="12">Brogdon</text>
<text x="500" y="759" font-size="12">Library Repository</text>
<text x="100" y="745" font-size="12">City Water</text>
<text x="1000" y="785" font-size="12">Unmetered</text>
<text x="100" y="755" font-size="12">River Water</text>
<text x="1000" y="795" font-size="12">Spillage</text>
<text x="100" y="765" font-size="12">Grady Early</text>
<text x="100" y="775" font-size="12">Boiler Plant</text>
<text x="100" y="785" font-size="12">Print Shop</text>
<text x="100" y="795" font-size="12">Freeman Ranch</text>
<line x1="550" y1="326" x2="500" y2="437" stroke="black" />
<line x1="550" y1="336" x2="500" y2="467" stroke="black" />
<line x1="550" y1="346" x2="500" y2="492" stroke="black" />
<line x1="550" y1="356" x2="500" y2="512" stroke="black" />
<line x1="550" y1="366" x2="500" y2="531" stroke="black" />
<line x1="550" y1="376" x2="500" y2="549" stroke="black" />
<line x1="550" y1="386" x2="500" y2="566" stroke="black" />
<line x1="550" y1="396" x2="500" y2="580" stroke="black" />
<line x1="550" y1="386" x2="500" y2="592" stroke="black" />
<line x1="550" y1="396" x2="500" y2="602" stroke="black" />
<line x1="550" y1="386" x2="500" y2="610" stroke="black" />
<line x1="550" y1="396" x2="500" y2="618" stroke="black" />
<line x1="550" y1="386" x2="500" y2="626" stroke="black" />
<line x1="550" y1="396" x2="500" y2="633" stroke="black" />
<line x1="550" y1="386" x2="500" y2="640" stroke="black" />
<line x1="550" y1="396" x2="500" y2="647" stroke="black" />
<line x1="550" y1="386" x2="500" y2="654" stroke="black" />
<line x1="550" y1="396" x2="500" y2="660" stroke="black" />
<line x1="550" y1="386" x2="500" y2="666" stroke="black" />
<line x1="550" y1="396" x2="500" y2="672" stroke="black" />
<line x1="550" y1="386" x2="500" y2="678" stroke="black" />
<line x1="550" y1="396" x2="500" y2="684" stroke="black" />
<line x1="550" y1="386" x2="500" y2="690" stroke="black" />
<line x1="550" y1="396" x2="500" y2="695" stroke="black" />
<line x1="550" y1="386" x2="500" y2="700" stroke="black" />
<line x1="550" y1="396" x2="500" y2="705" stroke="black" />
<line x1="550" y1="386" x2="500" y2="709" stroke="black" />
<line x1="550" y1="396" x2="500" y2="713" stroke="black" />
<line x1="550" y1="386" x2="500" y2="717" stroke="black" />
<line x1="550" y1="396" x2="500" y2="721" stroke="black" />
<line x1="550" y1="386" x2="500" y2="725" stroke="black" />
<line x1="550" y1="396" x2="500" y2="729" stroke="black" />
<line x1="550" y1="386" x2="500" y2="732" stroke="black" />
<line x1="550" y1="396" x2="500" y2="735" stroke="black" />
<line x1="550" y1="386" x2="500" y2="738" stroke="black" />
<line x1="550" y1="396" x2="500" y2="741" stroke="black" />
<line x1="550" y1="386" x2="500" y2="743" stroke="black" />
<line x1="550" y1="396" x2="500" y2="745" stroke="black" />
<line x1="550" y1="386" x2="500" y2="746" stroke="black" />
<line x1="550" y1="396" x2="500" y2="747" stroke="black" />
<line x1="550" y1="386" x2="500" y2="748" stroke="black" />
<line x1="550" y1="396" x2="500" y2="749" stroke="black" />
<line x1="550" y1="386" x2="500" y2="750" stroke="black" />
<line x1="550" y1="396" x2="500" y2="751" stroke="black" />
<line x1="550" y1="386" x2="500" y2="752" stroke="black" />
<line x1="550" y1="396" x2="500" y2="753" stroke="black" />
<line x1="550" y1="386" x2="500" y2="754" stroke="black" />
<line x1="550" y1="396" x2="500" y2="755" stroke="black" />
<line x1="550" y1="386" x2="500" y2="756" stroke="black" />
<line x1="550" y1="396" x2="500" y2="757" stroke="black" />
<line x1="550" y1="386" x2="500" y2="758" stroke="black" />
<line x1="550" y1="396" x2="500" y2="759" stroke="black" />
<line x1="550" y1="386" x2="500" y2="759" stroke="black" />
<line x1="550" y1="396" x2="500" y2="759" stroke="black" />
<line x1="550" y1="394" x2="500" y2="759" stroke="black" />
<line x1="550" y1="404" x2="500" y2="759" stroke="black" />
<line x1="550" y1="394" x2="500" y2="759" stroke="black" />
<line x1="550" y1="404" x2="500" y2="759" stroke="black" />
<line x1="550" y1="394" x2="500" y2="759" stroke="black" />
<line x1="550" y1="404" x2="500" y2="759" stroke="black" />
<line x1="550" y1="394" x2="500" y2="759" stroke="black" />
<line x1="550" y1="404" x2="500" y2="759" stroke="black" />
<line x1="550" y1="394" x2="500" y2="759" stroke="black" />
<line x1="550" y1="404" x2="500" y2="759" stroke="black" />
<line x1="550" y1="394" x2="500" y2="759" stroke="black" />
<line x1="550" y1="404" x2="500" y2="759" stroke="black" />
<line x1="550" y1="394" x2="500" y2="759" stroke="black" />
<line x1="550" y1="404" x2="500" y2="759" stroke="black" />
<line x1="550" y1="394" x2="500" y2="759" stroke="black" />
<line x1="550" y1="404" x2="500" y2="759" stroke="black" />
<line x1="550" y1="394" x2="500" y2="759" stroke="black" />
<line x1="550" y1="404" x2="500" y2="759" stroke="black" />
<line x1="550" y1="394" x2="500" y2="759" stroke="black" />
<line x1="550" y1="404" x2="500" y2="759" stroke="black" />
<line x1="550" y1="394" x2="500" y2="759" stroke="black" />
<line x1="550" y1="404" x2="500" y2="759" stroke="black" />
<line x1="550" y1="394" x2="500" y2="759" stroke="black" />
<line x1="550" y1="404" x2="500" y2="759" stroke="black" />
<line x1="550" y1="394" x2="500" y2="759" stroke="black" />
<line x1="550" y1="404" x2="500" y2="759" stroke="black" />
<line x1="550" y1="394" x2="500" y2="759" stroke="black" />
<line x1="550" y1="404" x2="500" y2="759" stroke="black" />
<line x1="550" y1="394" x2="500" y2="759" stroke="black" />
<line x1="550" y1="404" x2="500" y2="759" stroke="black" />
<line x1="550" y1="394" x2="500" y2="759" stroke="black" />
<line x1="550" y1="404" x2="500" y2="759" stroke="black" />
<line x1="550" y1="394" x2="500" y2="759" stroke="black" />
<line x1="550" y1="404" x2="500" y2="759" stroke="black" />
<line x1="550" y1="394" x2="500" y2="759" stroke="black" />
<line x1="550" y1="404" x2="500" y2="759" stroke="black" />
<line x1="550" y1="394" x2="500" y2="759" stroke="black" />
<line x1="550" y1="404" x2="500" y2="759" stroke="black" />
<line x1="550" y1="394" x2="500" y2="759" stroke="black" />
<line x1="550" y1="404" x2="500" y2="759" stroke="black" />
<line x1="550" y1="394" x2="500" y2="759" stroke="black" />
<line x1="550" y1="404" x2="500" y2="759" stroke="black" />
<line x1="550" y1="394" x2="500" y2="759" stroke="black" />
<line x1="550" y1="404" x2="500" y2="759" stroke="black" />
<line x1="550" y1="394" x2="500" y2="759" stroke="black" />
<line x1="550" y1="404" x2="500" y2="759" stroke="black" />
<line x1="550" y1="394" x2="500" y2="759" stroke="black" />
<line x1="550" y1="404" x2="500" y2="759" stroke="black" />
<line x1="550" y1="414" x2="500" y2="759" stroke="black" />
<line x1="550" y1="424" x2="500" y2="759" stroke="black" />
<line x1="550" y1="434" x2="500" y2="759" stroke="black" />
<line x1="550" y1="444" x2="500" y2="759" stroke="black" />
<line x1="550" y1="454" x2="500" y2="759" stroke="black" />
<line x1="550" y1="464" x2="500" y2="759" stroke="black" />
<line x1="550" y1="474" x2="500" y2="759" stroke="black" />
<line x1="550" y1="484" x2="500" y2="759" stroke="black" />
<line x1="550" y1="494" x2="500" y2="759" stroke="black" />
<line x1="550" y1="504" x2="500" y2="759" stroke="black" />
<line x1="550" y1="514" x2="500" y2="759" stroke="black" />
<line x1="550" y1="524" x2="500" y2="759" stroke="black" />
<line x1="550" y1="534" x2="500" y2="759" stroke="black" />
<line x1="550" y1="544" x2="500" y2="759" stroke="black" />
<line x1="550" y1="554" x2="500" y2="759" stroke="black" />
<line x1="550" y1="564" x2="500" y2="759" stroke="black" />
<line x1="550" y1="574" x2="500" y2="759" stroke="black" />
<line x1="550" y1="584" x2="500" y2="759" stroke="black" />
<line x1="550" y1="594" x2="500" y2="759" stroke="black" />
<line x1="550" y1="604" x2="500" y2="759" stroke="black" />
<line x1="550" y1="614" x2="500" y2="759" stroke="black" />
<line x1="550" y1="624" x2="500" y2="759" stroke="black" />
<line x1="550" y1="634" x2="500" y2="759" stroke="black" />
<line x1="550" y1="644" x2="500" y2="759" stroke="black" />
<line x1="550" y1="654" x2="500" y2="759" stroke="black" />
<line x1="550" y1="664" x2="500" y2="759" stroke="black" />
<line x1="550" y1="674" x2="500" y2="759" stroke="black" />
<line x1="550" y1="684" x2="500" y2="759" stroke="black" />
<line x1="550" y1="694" x2="500" y2="759" stroke="black" />
<line x1="550" y1="704" x2="500" y2="759" stroke="black" />
<line x1="550" y1="714" x2="500" y2="759" stroke="black" />
<line x1="550" y1="724" x2="500" y2="759" stroke="black" />
<line x1="550" y1="734" x2="500" y2="759" stroke="black" />
<line x1="550" y1="744" x2="500" y2="759" stroke="black" />
<line x1="100" y1="740" x2="50" y2="766" stroke="black" />
<line x1="1000" y1="780" x2="950" y2="789" stroke="black" />
<line x1="100" y1="750" x2="50" y2="792" stroke="black" />
<line x1="1000" y1="790" x2="950" y2="797" stroke="black" />
<line x1="100" y1="760" x2="50" y2="798" stroke="black" />
<line x1="100" y1="770" x2="50" y2="798" stroke="black" />
<line x1="100" y1="780" x2="50" y2="798" stroke="black" />
<line x1="100" y1="790" x2="50" y2="798" stroke="black" />
</svg>